IKResults
version=1
nRows=8
nColumns=40
inDegrees=yes

Units are S.I. units (second, meters, Newtons, ...)
Angles are in degrees.

endheader
time	pelvis_tilt	pelvis_list	pelvis_rotation	pelvis_tx	pelvis_ty	pelvis_tz	hip_flexion_r	hip_adduction_r	hip_rotation_r	knee_angle_r	knee_angle_r_beta	ankle_angle_r	subtalar_angle_r	mtp_angle_r	hip_flexion_l	hip_adduction_l	hip_rotation_l	knee_angle_l	knee_angle_l_beta	ankle_angle_l	subtalar_angle_l	mtp_angle_l	lumbar_extension	lumbar_bending	lumbar_rotation	arm_flex_r	arm_add_r	arm_rot_r	elbow_flex_r	pro_sup_r	wrist_flex_r	wrist_dev_r	arm_flex_l	arm_add_l	arm_rot_l	elbow_flex_l	pro_sup_l	wrist_flex_l	wrist_dev_l
      0.00000000	      8.07764908	     -5.71024529	      9.14976596	     -1.02601445	      0.89616096	     -1.01425876	     22.22727578	      2.94555383	    -19.08179360	    -32.86278850	     -0.57356386	     -0.94371307	    -11.55325398	      1.48413899	    -26.63488285	      9.07647211	      7.21696006	    -28.69614703	     -0.50084225	      4.13234816	     17.07612269	      2.41857641	    -19.35610365	      9.74064772	     -9.31831537	     -7.26177868	    -12.00434566	     -5.86544976	     19.26060936	     89.95437384	      0.00000000	      0.00000000	     12.76845681	      9.36746793	      3.34474168	     66.61389063	     89.95437384	      0.00000000	      0.00000000
      0.01000000	      8.23093794	     -6.00348704	      9.21786574	     -1.01254180	      0.89964472	     -1.01327786	     20.76345556	      3.71390145	    -19.04965127	    -32.06478235	     -0.55963603	     -0.30054541	    -11.55404199	      1.72525545	    -25.77566560	      9.62749581	      7.26023245	    -31.34411972	     -0.54705809	      1.74679890	     17.85373829	      4.16118935	    -19.26148032	     10.02064300	     -9.27059981	     -7.18847055	    -11.89921938	     -5.80771757	     19.56315633	     89.95437384	      0.00000000	      0.00000000	     12.54639707	      9.17597133	      3.40257112	     65.56641882	     89.95437384	      0.00000000	      0.00000000
      0.02000000	      8.32148815	     -5.87272461	      9.18619403	     -0.99921271	      0.90306815	     -1.01222726	     19.53069965	      4.06508548	    -18.46686346	    -31.75497854	     -0.55422893	      0.72548282	    -11.47762994	      1.68467771	    -24.80477788	      9.66479198	      7.10183177	    -33.97669166	     -0.59300514	     -0.50194736	     18.39340891	      4.80910678	    -19.19982084	      9.82426698	     -9.29818929	     -7.14525830	    -11.73871722	     -5.65287827	     20.08718493	     89.95437384	      0.00000000	      0.00000000	     12.32342035	      9.20114186	      3.32912718	     64.44970222	     89.95437384	      0.00000000	      0.00000000
      0.03000000	      8.70765909	     -5.46168650	      8.85753141	     -0.98614867	      0.90696726	     -1.01129019	     18.02053195	      4.05540011	    -17.99668550	    -31.65632133	     -0.55250704	      1.33624132	    -11.22777697	      1.62840200	    -23.98029447	      9.25931173	      6.96292098	    -36.91243156	     -0.64424347	     -2.08665576	     18.57013343	      5.08723288	    -19.61348511	      9.33085751	     -8.96917812	     -7.03061511	    -11.63424754	     -5.50836558	     20.67484139	     89.95437384	      0.00000000	      0.00000000	     12.08993264	      8.90877135	      3.54308113	     63.22786897	     89.95437384	      0.00000000	      0.00000000
      0.04000000	      8.92502179	     -6.07518115	      9.28291253	     -0.97300219	      0.91043370	     -1.01019049	     16.34314851	      5.35930601	    -17.51048921	    -30.37944308	     -0.53022131	      2.13916514	    -11.96348402	      4.34592212	    -22.46857719	     10.31156527	      6.82633320	    -40.11321223	     -0.70010763	     -3.80905625	     18.50609931	     19.08382763	    -19.53127310	     10.04785384	     -9.07428387	     -7.17138543	    -11.66439525	     -4.64298082	     21.63800666	     89.95437384	      0.00000000	      0.00000000	     11.87601580	      8.90598489	      3.36076021	     61.77988106	     89.95437384	      0.00000000	      0.00000000
      0.05000000	      9.20371097	     -5.69488217	      8.88829335	     -0.96074123	      0.91389947	     -1.00899184	     14.87473750	      5.23730508	    -17.42592785	    -30.06775189	     -0.52478127	      2.70714051	    -11.49157691	      4.19040369	    -21.37534763	      9.94508225	      6.95333955	    -42.70765543	     -0.74538920	     -5.15021839	     18.75167104	     18.83819006	    -19.92644250	      9.51445798	     -8.63342193	     -6.94413403	    -11.55579335	     -4.45685774	     22.26903471	     89.95437384	      0.00000000	      0.00000000	     11.70874227	      8.72879926	      3.52802486	     60.46823222	     89.95437384	      0.00000000	      0.00000000
      0.06000000	      9.31767045	     -6.10094409	      9.06398780	     -0.94834657	      0.91682906	     -1.00759362	     13.38385116	      6.04346552	    -17.47458968	    -29.02729013	     -0.50662179	      3.69325279	    -10.61184466	      3.96032531	    -19.67997794	     10.77862699	      6.95728286	    -45.43860151	     -0.79305320	     -6.93707804	     18.96975315	     19.01572443	    -19.86695585	      9.87864349	     -8.32325625	     -7.08432383	    -11.52559678	     -4.00839577	     23.32309008	     89.95437384	      0.00000000	      0.00000000	     11.67516843	      8.56847098	      3.30049316	     58.61736053	     89.95437384	      0.00000000	      0.00000000
      0.07000000	      9.52516717	     -6.24905132	      8.95053096	     -0.93645455	      0.91980583	     -1.00658239	     11.85779551	      6.46573446	    -17.68693461	    -28.16449876	     -0.49156324	      4.19484925	     -9.85058397	      3.78943560	    -18.27901232	     11.02691537	      6.89794008	    -47.86653700	     -0.83542867	     -6.42577256	     18.91600925	     18.93573678	    -20.12112311	     10.00922332	     -7.97344208	     -6.91280711	    -11.60502133	     -3.56137171	     24.26666786	     89.95437384	      0.00000000	      0.00000000	     11.45508408	      8.35394671	      3.50096141	     57.08976533	     89.95437384	      0.00000000	      0.00000000
